<?xml version="1.0" standalone="no"?>
<!DOCTYPE svg PUBLIC "-//W3C//DTD SVG 20010904//EN"
 "http://www.w3.org/TR/2001/REC-SVG-20010904/DTD/svg10.dtd">
<svg version="1.0" xmlns="http://www.w3.org/2000/svg"
 width="600.000000pt" height="600.000000pt" viewBox="0 0 600.000000 600.000000"
 preserveAspectRatio="xMidYMid meet">

<g transform="translate(0.000000,600.000000) scale(0.100000,-0.100000)"
fill="#000000" stroke="none">
<path d="M3946 4983 c19 -329 27 -634 19 -772 -6 -114 -9 -131 -24 -131 -41 0
-112 -34 -141 -66 -36 -41 -39 -86 -15 -229 19 -118 21 -109 -24 -130 -67 -30
-93 -65 -100 -136 l-6 -62 -139 179 -140 179 -1 105 c-1 84 -6 117 -25 165
-49 126 -126 152 -184 63 -10 -16 -22 -28 -26 -28 -4 0 -19 32 -35 71 -31 81
-68 129 -97 129 -12 0 -36 -12 -55 -26 l-34 -26 -37 42 c-49 58 -100 80 -189
80 -197 0 -331 -136 -444 -454 -73 -205 -110 -287 -146 -323 -40 -39 -126 -85
-205 -108 -31 -9 -62 -23 -69 -31 -24 -29 9 -36 154 -30 77 3 137 1 137 -4 0
-14 -58 -54 -126 -88 -62 -31 -83 -57 -64 -76 7 -7 53 -11 113 -11 99 0 105 1
212 48 61 26 115 47 121 47 6 0 23 -17 37 -39 14 -21 50 -60 81 -87 52 -46 54
-49 41 -74 -28 -54 -29 -96 -1 -155 20 -45 33 -59 63 -71 67 -29 175 -1 231
59 l23 25 111 -89 c176 -141 233 -160 351 -115 37 14 67 23 67 20 0 -3 -9 -18
-21 -33 -33 -45 -36 -109 -7 -150 34 -51 350 -347 395 -370 64 -34 66 -36 55
-58 -15 -28 9 -127 39 -159 12 -13 46 -38 75 -54 29 -16 57 -38 62 -47 5 -10
12 -175 16 -368 8 -447 18 -779 22 -784 3 -3 9 0 14 5 7 7 7 133 0 364 -5 195
-10 448 -10 561 l0 206 41 7 c27 4 53 19 81 44 l40 38 5 137 c4 136 4 137 -21
162 -22 22 -34 25 -93 25 l-68 0 0 647 c0 486 3 647 12 650 6 2 30 -21 53 -51
22 -31 44 -56 49 -56 4 0 18 11 31 25 18 20 23 34 20 67 -2 24 -2 59 -1 78 2
54 -20 192 -37 224 -8 17 -36 53 -63 81 -26 28 -53 64 -60 80 -8 20 -13 128
-14 335 -3 283 -26 707 -40 730 -18 28 -19 -7 -9 -187z m-1202 -717 c62 -26
55 -39 -17 -31 -86 9 -128 -5 -194 -68 -36 -34 -53 -45 -53 -33 0 28 30 65 88
107 61 43 114 51 176 25z m526 -137 c13 -23 54 -157 63 -205 5 -26 0 -38 -28
-71 -37 -43 -36 -53 4 -53 22 -1 46 -26 142 -153 184 -241 194 -259 194 -333
0 -56 -6 -75 -54 -170 -89 -175 -187 -260 -338 -295 -44 -10 -55 -9 -98 10
-69 31 -218 126 -232 150 -7 10 -27 24 -46 30 -31 11 -41 9 -97 -20 -110 -55
-161 -57 -196 -4 -19 30 -21 95 -2 124 7 11 42 35 78 52 l65 31 -25 17 c-41
26 -70 61 -116 141 -56 95 -57 128 -8 201 74 108 94 166 134 371 l11 58 72
-39 c94 -52 162 -64 268 -48 96 14 101 19 130 132 10 42 21 81 24 86 11 16 44
9 55 -12z m787 -133 c32 -30 55 -58 50 -62 -4 -4 -20 4 -35 18 -53 50 -109 62
-148 33 -17 -13 -15 -14 32 -15 56 0 98 -24 140 -81 35 -48 31 -65 -8 -36 -55
41 -95 57 -142 57 -46 0 -68 -13 -40 -24 9 -3 30 -6 47 -6 65 0 195 -101 185
-144 -2 -12 -20 -3 -68 35 -35 27 -75 52 -87 55 -25 7 -95 -24 -101 -43 -5
-18 24 -16 53 3 31 20 49 14 121 -42 73 -56 84 -70 84 -108 0 -53 -16 -64 -35
-25 -23 45 -45 69 -72 80 -25 9 -81 -4 -108 -27 -19 -15 -18 -15 17 -10 l37 5
-6 -112 c-3 -62 -7 -114 -9 -116 -5 -6 -26 20 -64 78 -16 24 -32 64 -35 90 -4
25 -18 80 -32 121 -33 97 -42 214 -20 257 20 38 88 73 144 73 37 0 49 -6 100
-54z m-306 -904 c23 -71 -11 -204 -69 -266 -31 -33 -80 -56 -118 -56 -62 0
-127 57 -117 103 6 22 9 22 45 -5 17 -11 52 -23 78 -26 42 -4 51 -1 84 28 49
43 66 79 66 137 0 51 -21 94 -62 124 -22 17 -22 18 -3 38 l19 21 33 -32 c18
-17 38 -47 44 -66z m-77 -14 c33 -47 12 -146 -39 -186 -30 -24 -83 -29 -116
-12 -20 11 -26 45 -9 55 6 4 36 42 66 86 31 43 62 79 69 79 8 0 21 -10 29 -22z
m296 -628 c0 -51 -6 -60 -28 -38 -9 9 -12 8 -12 -6 0 -10 13 -31 29 -47 29
-29 46 -33 124 -29 36 2 67 -13 67 -31 0 -11 -66 -29 -106 -29 -19 0 -48 12
-72 30 -51 37 -55 21 -7 -27 37 -37 48 -38 160 -21 16 2 21 -3 23 -28 3 -28 0
-32 -36 -42 -65 -20 -95 -15 -145 23 -56 43 -65 44 -36 4 36 -51 76 -71 134
-65 28 2 60 7 73 11 31 10 29 -18 -3 -43 -41 -32 -90 -36 -141 -12 -24 12 -49
31 -55 41 -5 10 -14 19 -19 19 -21 0 -8 -25 30 -61 50 -48 95 -58 156 -34 25
9 48 14 52 10 4 -3 -15 -27 -41 -52 -41 -39 -52 -44 -78 -39 -39 8 -166 82
-178 104 -37 70 -26 307 17 355 18 21 72 57 85 57 4 0 7 -22 7 -50z"/>
<path d="M3230 4035 c-19 -50 -41 -146 -35 -155 3 -6 15 -10 26 -10 16 0 19 7
19 40 0 36 2 40 26 40 22 0 25 3 20 23 -3 12 -6 37 -6 55 0 25 -4 32 -20 32
-13 0 -24 -10 -30 -25z"/>
<path d="M2970 3630 c0 -11 12 -26 30 -35 65 -34 99 -2 38 35 -43 26 -68 26
-68 0z"/>
<path d="M2920 3480 c0 -25 92 -212 127 -259 85 -112 271 -62 290 78 6 40 4
44 -46 92 -28 27 -60 49 -71 49 -32 0 -24 -36 14 -65 43 -32 62 -75 47 -103
-29 -55 -98 -77 -156 -50 -30 14 -54 50 -117 181 -37 75 -52 97 -68 97 -13 0
-20 -7 -20 -20z"/>
<path d="M2790 3417 c0 -27 44 -81 62 -75 20 7 19 23 -5 59 -28 42 -57 51 -57
16z"/>
<path d="M3366 3165 c-29 -23 -29 -24 -11 -52 49 -78 88 -92 124 -47 28 35 26
65 -4 98 -30 33 -70 33 -109 1z m84 -25 c16 -16 18 -25 10 -40 -5 -10 -14 -21
-19 -24 -12 -8 -73 62 -66 75 11 16 54 10 75 -11z"/>
<path d="M2652 3120 c-31 -14 -42 -25 -40 -37 3 -12 12 -17 27 -15 13 1 36 -9
53 -23 35 -29 41 -30 59 -9 10 13 10 17 -2 25 -8 5 -21 9 -29 9 -9 0 -4 9 15
25 25 21 28 26 15 35 -22 15 -50 12 -98 -10z"/>
</g>
</svg>
